<svg width="70" height="70" viewBox="0 0 70 70" fill="none" xmlns="http://www.w3.org/2000/svg">
<g filter="url(#filter0_d)">
<path d="M35 63C51.5685 63 65 49.5685 65 33C65 16.4315 51.5685 3 35 3C18.4315 3 5 16.4315 5 33C5 49.5685 18.4315 63 35 63Z" fill="#E44D26"/>
<path d="M45.6185 13.8173L15.9401 22.262C13.7585 22.8828 12.4283 25.1717 12.9691 27.3745C13.5098 29.5773 15.7167 30.8598 17.8983 30.239L47.5766 21.7943C49.7582 21.1736 51.0884 18.8847 50.5477 16.6819C50.0069 14.4791 47.8 13.1966 45.6185 13.8173Z" fill="#0C101B"/>
<path d="M51.9517 23.8337L22.2734 32.2784C20.0918 32.8991 18.7616 35.1881 19.3023 37.3908C19.8431 39.5936 22.05 40.8761 24.2315 40.2554L53.9099 31.8107C56.0915 31.1899 57.4217 28.901 56.8809 26.6982C56.3402 24.4954 54.1333 23.2129 51.9517 23.8337Z" fill="#0C101B"/>
<path d="M51.042 35.9111L21.3637 44.3558C19.1821 44.9765 17.8519 47.2654 18.3927 49.4682C18.9334 51.671 21.1403 52.9535 23.3219 52.3328L53.0002 43.8881C55.1818 43.2673 56.512 40.9784 55.9713 38.7756C55.4305 36.5728 53.2236 35.2903 51.042 35.9111Z" fill="#0C101B"/>
</g>
<defs>
<filter id="filter0_d" x="0" y="0" width="70" height="70" filterUnits="userSpaceOnUse" color-interpolation-filters="sRGB">
<feFlood flood-opacity="0" result="BackgroundImageFix"/>
<feColorMatrix in="SourceAlpha" type="matrix" values="0 0 0 0 0 0 0 0 0 0 0 0 0 0 0 0 0 0 127 0"/>
<feOffset dy="2"/>
<feGaussianBlur stdDeviation="2.5"/>
<feColorMatrix type="matrix" values="0 0 0 0 0 0 0 0 0 0 0 0 0 0 0 0 0 0 0.5 0"/>
<feBlend mode="normal" in2="BackgroundImageFix" result="effect1_dropShadow"/>
<feBlend mode="normal" in="SourceGraphic" in2="effect1_dropShadow" result="shape"/>
</filter>
</defs>
</svg>
