<svg width="1440" height="5010" viewBox="0 0 1440 5010" fill="none" xmlns="http://www.w3.org/2000/svg">
<g opacity="0.19">
<path d="M1838.5 434.5C1838.5 663.626 1645.72 850.5 1406.5 850.5C1167.28 850.5 974.5 663.626 974.5 434.5C974.5 205.374 1167.28 18.5 1406.5 18.5C1645.72 18.5 1838.5 205.374 1838.5 434.5Z" stroke="#15002D" stroke-width="37"/>
<path d="M1782.19 434.5C1782.19 633.63 1614.62 796.188 1406.5 796.188C1198.38 796.188 1030.81 633.63 1030.81 434.5C1030.81 235.37 1198.38 72.8125 1406.5 72.8125C1614.62 72.8125 1782.19 235.37 1782.19 434.5Z" stroke="#15002D" stroke-width="37"/>
<path d="M1725.88 434.5C1725.88 603.634 1583.52 741.875 1406.5 741.875C1229.48 741.875 1087.12 603.634 1087.12 434.5C1087.12 265.366 1229.48 127.125 1406.5 127.125C1583.52 127.125 1725.88 265.366 1725.88 434.5Z" stroke="#15002D" stroke-width="37"/>
<path d="M1669.56 434.5C1669.56 573.638 1552.42 687.562 1406.5 687.562C1260.58 687.562 1143.44 573.638 1143.44 434.5C1143.44 295.362 1260.58 181.438 1406.5 181.438C1552.42 181.438 1669.56 295.362 1669.56 434.5Z" stroke="#15002D" stroke-width="37"/>
<path d="M1613.25 433.414C1613.25 542.555 1521.32 632.164 1406.5 632.164C1291.68 632.164 1199.75 542.555 1199.75 433.414C1199.75 324.272 1291.68 234.664 1406.5 234.664C1521.32 234.664 1613.25 324.272 1613.25 433.414Z" stroke="#15002D" stroke-width="37"/>
</g>
<g opacity="0.19">
<path d="M1838.5 2104.5C1838.5 2333.63 1645.72 2520.5 1406.5 2520.5C1167.28 2520.5 974.5 2333.63 974.5 2104.5C974.5 1875.37 1167.28 1688.5 1406.5 1688.5C1645.72 1688.5 1838.5 1875.37 1838.5 2104.5Z" stroke="#15002D" stroke-width="37"/>
<path d="M1782.19 2104.5C1782.19 2303.63 1614.62 2466.19 1406.5 2466.19C1198.38 2466.19 1030.81 2303.63 1030.81 2104.5C1030.81 1905.37 1198.38 1742.81 1406.5 1742.81C1614.62 1742.81 1782.19 1905.37 1782.19 2104.5Z" stroke="#15002D" stroke-width="37"/>
<path d="M1725.88 2104.5C1725.88 2273.63 1583.52 2411.88 1406.5 2411.88C1229.48 2411.88 1087.12 2273.63 1087.12 2104.5C1087.12 1935.37 1229.48 1797.12 1406.5 1797.12C1583.52 1797.12 1725.88 1935.37 1725.88 2104.5Z" stroke="#15002D" stroke-width="37"/>
<path d="M1669.56 2104.5C1669.56 2243.64 1552.42 2357.56 1406.5 2357.56C1260.58 2357.56 1143.44 2243.64 1143.44 2104.5C1143.44 1965.36 1260.58 1851.44 1406.5 1851.44C1552.42 1851.44 1669.56 1965.36 1669.56 2104.5Z" stroke="#15002D" stroke-width="37"/>
<path d="M1613.25 2103.41C1613.25 2212.56 1521.32 2302.16 1406.5 2302.16C1291.68 2302.16 1199.75 2212.56 1199.75 2103.41C1199.75 1994.27 1291.68 1904.66 1406.5 1904.66C1521.32 1904.66 1613.25 1994.27 1613.25 2103.41Z" stroke="#15002D" stroke-width="37"/>
</g>
<g opacity="0.19">
<path d="M1838.5 3774.5C1838.5 4003.63 1645.72 4190.5 1406.5 4190.5C1167.28 4190.5 974.5 4003.63 974.5 3774.5C974.5 3545.37 1167.28 3358.5 1406.5 3358.5C1645.72 3358.5 1838.5 3545.37 1838.5 3774.5Z" stroke="#15002D" stroke-width="37"/>
<path d="M1782.19 3774.5C1782.19 3973.63 1614.62 4136.19 1406.5 4136.19C1198.38 4136.19 1030.81 3973.63 1030.81 3774.5C1030.81 3575.37 1198.38 3412.81 1406.5 3412.81C1614.62 3412.81 1782.19 3575.37 1782.19 3774.5Z" stroke="#15002D" stroke-width="37"/>
<path d="M1725.88 3774.5C1725.88 3943.63 1583.52 4081.88 1406.5 4081.88C1229.48 4081.88 1087.12 3943.63 1087.12 3774.5C1087.12 3605.37 1229.48 3467.12 1406.5 3467.12C1583.52 3467.12 1725.88 3605.37 1725.88 3774.5Z" stroke="#15002D" stroke-width="37"/>
<path d="M1669.56 3774.5C1669.56 3913.64 1552.42 4027.56 1406.5 4027.56C1260.58 4027.56 1143.44 3913.64 1143.44 3774.5C1143.44 3635.36 1260.58 3521.44 1406.5 3521.44C1552.42 3521.44 1669.56 3635.36 1669.56 3774.5Z" stroke="#15002D" stroke-width="37"/>
<path d="M1613.25 3773.41C1613.25 3882.56 1521.32 3972.16 1406.5 3972.16C1291.68 3972.16 1199.75 3882.56 1199.75 3773.41C1199.75 3664.27 1291.68 3574.66 1406.5 3574.66C1521.32 3574.66 1613.25 3664.27 1613.25 3773.41Z" stroke="#15002D" stroke-width="37"/>
</g>
<g opacity="0.19">
<path d="M426.5 1235.5C426.5 1464.63 233.723 1651.5 -5.5 1651.5C-244.723 1651.5 -437.5 1464.63 -437.5 1235.5C-437.5 1006.37 -244.723 819.5 -5.5 819.5C233.723 819.5 426.5 1006.37 426.5 1235.5Z" stroke="#15002D" stroke-width="37"/>
<path d="M370.188 1235.5C370.188 1434.63 202.623 1597.19 -5.5 1597.19C-213.623 1597.19 -381.188 1434.63 -381.188 1235.5C-381.188 1036.37 -213.623 873.812 -5.5 873.812C202.623 873.812 370.188 1036.37 370.188 1235.5Z" stroke="#15002D" stroke-width="37"/>
<path d="M313.875 1235.5C313.875 1404.63 171.522 1542.88 -5.5 1542.88C-182.522 1542.88 -324.875 1404.63 -324.875 1235.5C-324.875 1066.37 -182.522 928.125 -5.5 928.125C171.522 928.125 313.875 1066.37 313.875 1235.5Z" stroke="#15002D" stroke-width="37"/>
<path d="M257.562 1235.5C257.562 1374.64 140.422 1488.56 -5.5 1488.56C-151.422 1488.56 -268.562 1374.64 -268.562 1235.5C-268.562 1096.36 -151.422 982.438 -5.5 982.438C140.422 982.438 257.562 1096.36 257.562 1235.5Z" stroke="#15002D" stroke-width="37"/>
<path d="M201.25 1234.41C201.25 1343.56 109.321 1433.16 -5.5 1433.16C-120.321 1433.16 -212.25 1343.56 -212.25 1234.41C-212.25 1125.27 -120.321 1035.66 -5.5 1035.66C109.321 1035.66 201.25 1125.27 201.25 1234.41Z" stroke="#15002D" stroke-width="37"/>
</g>
<g opacity="0.19">
<path d="M426.5 2905.5C426.5 3134.63 233.723 3321.5 -5.5 3321.5C-244.723 3321.5 -437.5 3134.63 -437.5 2905.5C-437.5 2676.37 -244.723 2489.5 -5.5 2489.5C233.723 2489.5 426.5 2676.37 426.5 2905.5Z" stroke="#15002D" stroke-width="37"/>
<path d="M370.188 2905.5C370.188 3104.63 202.623 3267.19 -5.5 3267.19C-213.623 3267.19 -381.188 3104.63 -381.188 2905.5C-381.188 2706.37 -213.623 2543.81 -5.5 2543.81C202.623 2543.81 370.188 2706.37 370.188 2905.5Z" stroke="#15002D" stroke-width="37"/>
<path d="M313.875 2905.5C313.875 3074.63 171.522 3212.88 -5.5 3212.88C-182.522 3212.88 -324.875 3074.63 -324.875 2905.5C-324.875 2736.37 -182.522 2598.12 -5.5 2598.12C171.522 2598.12 313.875 2736.37 313.875 2905.5Z" stroke="#15002D" stroke-width="37"/>
<path d="M257.562 2905.5C257.562 3044.64 140.422 3158.56 -5.5 3158.56C-151.422 3158.56 -268.562 3044.64 -268.562 2905.5C-268.562 2766.36 -151.422 2652.44 -5.5 2652.44C140.422 2652.44 257.562 2766.36 257.562 2905.5Z" stroke="#15002D" stroke-width="37"/>
<path d="M201.25 2904.41C201.25 3013.56 109.321 3103.16 -5.5 3103.16C-120.321 3103.16 -212.25 3013.56 -212.25 2904.41C-212.25 2795.27 -120.321 2705.66 -5.5 2705.66C109.321 2705.66 201.25 2795.27 201.25 2904.41Z" stroke="#15002D" stroke-width="37"/>
</g>
<g opacity="0.19">
<path d="M426.5 4575.5C426.5 4804.63 233.723 4991.5 -5.5 4991.5C-244.723 4991.5 -437.5 4804.63 -437.5 4575.5C-437.5 4346.37 -244.723 4159.5 -5.5 4159.5C233.723 4159.5 426.5 4346.37 426.5 4575.5Z" stroke="#15002D" stroke-width="37"/>
<path d="M370.188 4575.5C370.188 4774.63 202.623 4937.19 -5.5 4937.19C-213.623 4937.19 -381.188 4774.63 -381.188 4575.5C-381.188 4376.37 -213.623 4213.81 -5.5 4213.81C202.623 4213.81 370.188 4376.37 370.188 4575.5Z" stroke="#15002D" stroke-width="37"/>
<path d="M313.875 4575.5C313.875 4744.63 171.522 4882.88 -5.5 4882.88C-182.522 4882.88 -324.875 4744.63 -324.875 4575.5C-324.875 4406.37 -182.522 4268.12 -5.5 4268.12C171.522 4268.12 313.875 4406.37 313.875 4575.5Z" stroke="#15002D" stroke-width="37"/>
<path d="M257.562 4575.5C257.562 4714.64 140.422 4828.56 -5.5 4828.56C-151.422 4828.56 -268.562 4714.64 -268.562 4575.5C-268.562 4436.36 -151.422 4322.44 -5.5 4322.44C140.422 4322.44 257.562 4436.36 257.562 4575.5Z" stroke="#15002D" stroke-width="37"/>
<path d="M201.25 4574.41C201.25 4683.56 109.321 4773.16 -5.5 4773.16C-120.321 4773.16 -212.25 4683.56 -212.25 4574.41C-212.25 4465.27 -120.321 4375.66 -5.5 4375.66C109.321 4375.66 201.25 4465.27 201.25 4574.41Z" stroke="#15002D" stroke-width="37"/>
</g>
</svg>
